<svg width="70" height="13" viewBox="0 0 70 13" fill="none" xmlns="http://www.w3.org/2000/svg">
<path d="M10.7727 4H9.36364C9.2803 3.5947 9.13447 3.23864 8.92614 2.93182C8.72159 2.625 8.47159 2.36742 8.17614 2.15909C7.88447 1.94697 7.56061 1.78788 7.20455 1.68182C6.84849 1.57576 6.47727 1.52273 6.09091 1.52273C5.38636 1.52273 4.74811 1.70076 4.17614 2.05682C3.60795 2.41288 3.1553 2.9375 2.81818 3.63068C2.48485 4.32386 2.31818 5.17424 2.31818 6.18182C2.31818 7.18939 2.48485 8.03977 2.81818 8.73295C3.1553 9.42614 3.60795 9.95076 4.17614 10.3068C4.74811 10.6629 5.38636 10.8409 6.09091 10.8409C6.47727 10.8409 6.84849 10.7879 7.20455 10.6818C7.56061 10.5758 7.88447 10.4186 8.17614 10.2102C8.47159 9.99811 8.72159 9.73864 8.92614 9.43182C9.13447 9.12121 9.2803 8.76515 9.36364 8.36364H10.7727C10.6667 8.95833 10.4735 9.49053 10.1932 9.96023C9.91288 10.4299 9.56439 10.8295 9.14773 11.1591C8.73106 11.4848 8.26326 11.733 7.74432 11.9034C7.22917 12.0739 6.67803 12.1591 6.09091 12.1591C5.09849 12.1591 4.21591 11.9167 3.44318 11.4318C2.67045 10.947 2.0625 10.2576 1.61932 9.36364C1.17614 8.4697 0.954545 7.40909 0.954545 6.18182C0.954545 4.95455 1.17614 3.89394 1.61932 3C2.0625 2.10606 2.67045 1.41667 3.44318 0.931818C4.21591 0.446969 5.09849 0.204545 6.09091 0.204545C6.67803 0.204545 7.22917 0.289772 7.74432 0.460227C8.26326 0.630682 8.73106 0.880682 9.14773 1.21023C9.56439 1.53598 9.91288 1.93371 10.1932 2.40341C10.4735 2.86932 10.6667 3.40151 10.7727 4ZM12.8679 12V3.27273H14.2088V12H12.8679ZM13.5497 1.81818C13.2884 1.81818 13.063 1.72917 12.8736 1.55114C12.688 1.37311 12.5952 1.15909 12.5952 0.909091C12.5952 0.659091 12.688 0.445076 12.8736 0.267045C13.063 0.089015 13.2884 0 13.5497 0C13.8111 0 14.0346 0.089015 14.2202 0.267045C14.4096 0.445076 14.5043 0.659091 14.5043 0.909091C14.5043 1.15909 14.4096 1.37311 14.2202 1.55114C14.0346 1.72917 13.8111 1.81818 13.5497 1.81818ZM16.8466 12V0.363636H18.1875V4.65909H18.3011C18.3996 4.50758 18.536 4.31439 18.7102 4.07955C18.8883 3.84091 19.142 3.62879 19.4716 3.44318C19.8049 3.25379 20.2557 3.15909 20.8239 3.15909C21.5587 3.15909 22.2064 3.3428 22.767 3.71023C23.3277 4.07765 23.7652 4.59848 24.0795 5.27273C24.3939 5.94697 24.5511 6.74242 24.5511 7.65909C24.5511 8.58333 24.3939 9.38447 24.0795 10.0625C23.7652 10.7367 23.3295 11.2595 22.7727 11.6307C22.2159 11.9981 21.5739 12.1818 20.8466 12.1818C20.286 12.1818 19.8371 12.089 19.5 11.9034C19.1629 11.714 18.9034 11.5 18.7216 11.2614C18.5398 11.0189 18.3996 10.8182 18.3011 10.6591H18.142V12H16.8466ZM18.1648 7.63636C18.1648 8.29545 18.2614 8.87689 18.4545 9.38068C18.6477 9.88068 18.9299 10.2727 19.3011 10.5568C19.6723 10.8371 20.1269 10.9773 20.6648 10.9773C21.2254 10.9773 21.6932 10.8295 22.0682 10.5341C22.447 10.2348 22.7311 9.83333 22.9205 9.32955C23.1136 8.82197 23.2102 8.25758 23.2102 7.63636C23.2102 7.02273 23.1155 6.4697 22.9261 5.97727C22.7405 5.48106 22.4583 5.08902 22.0795 4.80114C21.7045 4.50947 21.233 4.36364 20.6648 4.36364C20.1193 4.36364 19.661 4.50189 19.2898 4.77841C18.9186 5.05114 18.6383 5.43371 18.4489 5.92614C18.2595 6.41477 18.1648 6.98485 18.1648 7.63636ZM27.9432 0.363636V12H26.6023V0.363636H27.9432ZM34.0582 12.1818C33.2173 12.1818 32.492 11.9962 31.8821 11.625C31.276 11.25 30.8082 10.7273 30.4787 10.0568C30.1529 9.38258 29.9901 8.59848 29.9901 7.70455C29.9901 6.81061 30.1529 6.02273 30.4787 5.34091C30.8082 4.6553 31.2666 4.12121 31.8537 3.73864C32.4446 3.35227 33.134 3.15909 33.9219 3.15909C34.3764 3.15909 34.8253 3.23485 35.2685 3.38636C35.7116 3.53788 36.1151 3.78409 36.4787 4.125C36.8423 4.46212 37.1321 4.90909 37.348 5.46591C37.5639 6.02273 37.6719 6.70833 37.6719 7.52273V8.09091H30.9446V6.93182H36.3082C36.3082 6.43939 36.2098 6 36.0128 5.61364C35.8196 5.22727 35.5431 4.92235 35.1832 4.69886C34.8272 4.47538 34.4067 4.36364 33.9219 4.36364C33.3878 4.36364 32.9257 4.49621 32.5355 4.76136C32.1491 5.02273 31.8518 5.36364 31.6435 5.78409C31.4351 6.20455 31.331 6.6553 31.331 7.13636V7.90909C31.331 8.56818 31.4446 9.12689 31.6719 9.58523C31.9029 10.0398 32.223 10.3864 32.6321 10.625C33.0412 10.8598 33.5166 10.9773 34.0582 10.9773C34.4105 10.9773 34.7287 10.928 35.0128 10.8295C35.3007 10.7273 35.5488 10.5758 35.7571 10.375C35.9654 10.1705 36.1264 9.91667 36.2401 9.61364L37.5355 9.97727C37.3991 10.4167 37.17 10.803 36.848 11.1364C36.526 11.4659 36.1283 11.7235 35.6548 11.9091C35.1813 12.0909 34.6491 12.1818 34.0582 12.1818ZM39.8935 12V0.363636H41.3026V10.75H46.7116V12H39.8935ZM48.7116 12V3.27273H50.0526V12H48.7116ZM49.3935 1.81818C49.1321 1.81818 48.9067 1.72917 48.7173 1.55114C48.5317 1.37311 48.4389 1.15909 48.4389 0.909091C48.4389 0.659091 48.5317 0.445076 48.7173 0.267045C48.9067 0.089015 49.1321 0 49.3935 0C49.6548 0 49.8783 0.089015 50.0639 0.267045C50.2533 0.445076 50.348 0.659091 50.348 0.909091C50.348 1.15909 50.2533 1.37311 50.0639 1.55114C49.8783 1.72917 49.6548 1.81818 49.3935 1.81818ZM53.8494 6.75V12H52.5085V3.27273H53.804V4.63636H53.9176C54.1222 4.19318 54.4328 3.83712 54.8494 3.56818C55.2661 3.29545 55.804 3.15909 56.4631 3.15909C57.054 3.15909 57.571 3.2803 58.0142 3.52273C58.4574 3.76136 58.8021 4.125 59.0483 4.61364C59.2945 5.09848 59.4176 5.71212 59.4176 6.45455V12H58.0767V6.54545C58.0767 5.85985 57.8987 5.32576 57.5426 4.94318C57.1866 4.55682 56.6979 4.36364 56.0767 4.36364C55.6487 4.36364 55.2661 4.45644 54.929 4.64205C54.5956 4.82765 54.3324 5.09848 54.1392 5.45455C53.946 5.81061 53.8494 6.24242 53.8494 6.75ZM63.1179 8.81818L63.0952 7.15909H63.3679L67.1861 3.27273H68.8452L64.777 7.38636H64.6634L63.1179 8.81818ZM61.8679 12V0.363636H63.2088V12H61.8679ZM67.4134 12L64.0043 7.68182L64.9588 6.75L69.1179 12H67.4134Z" fill="white"/>
</svg>
